<svg
  width="30"
  height="30"
  viewBox="0 0 30 30"
  fill="none"
  xmlns="http://www.w3.org/2000/svg"
>
  <path
    d="M21.2729 8.91141C21.0104 8.91141 20.7977 8.7055 20.7977 8.4515C20.7977 8.19749 21.0104 7.99158 21.2729 7.99158"
    stroke="#F5F5DC"
    stroke-width="2.10758"
    stroke-linecap="round"
    stroke-linejoin="round"
  />
  <path
    d="M21.2729 8.91148C21.5354 8.91148 21.7481 8.70556 21.7481 8.45156C21.7481 8.19755 21.5354 7.99164 21.2729 7.99164"
    stroke="#F5F5DC"
    stroke-width="2.10758"
    stroke-linecap="round"
    stroke-linejoin="round"
  />
  <path
    d="M3.26117 8.52031C3.26117 5.90608 5.45107 3.7868 8.15246 3.7868H21.196C23.8973 3.7868 26.0873 5.90608 26.0873 8.52031V21.143C26.0873 23.7572 23.8973 25.8765 21.196 25.8765H8.15246C5.45107 25.8765 3.26117 23.7572 3.26117 21.143V8.52031Z"
    stroke="#F5F5DC"
    stroke-width="2.10758"
    stroke-linecap="round"
    stroke-linejoin="round"
  />
  <path
    d="M9.8262 14.8314C9.8262 16.0756 10.3369 17.2688 11.246 18.1486C12.1551 19.0284 13.3881 19.5226 14.6737 19.5226C15.9594 19.5226 17.1924 19.0284 18.1015 18.1486C19.0106 17.2688 19.5213 16.0756 19.5213 14.8314C19.5213 13.5873 19.0106 12.394 18.1015 11.5143C17.1924 10.6345 15.9594 10.1403 14.6737 10.1403C13.3881 10.1403 12.1551 10.6345 11.246 11.5143C10.3369 12.394 9.8262 13.5873 9.8262 14.8314Z"
    stroke="#F5F5DC"
    stroke-width="2.10758"
    stroke-linecap="round"
    stroke-linejoin="round"
  />
</svg>
