<svg
  width="33"
  height="33"
  viewBox="0 0 33 33"
  fill="none"
  xmlns="http://www.w3.org/2000/svg"
>
  <path
    fill-rule="evenodd"
    clip-rule="evenodd"
    d="M7.95839 18.8282C8.01747 18.8473 8.07822 18.8611 8.13989 18.8695C8.5289 19.7592 8.91574 20.6498 9.30039 21.5413C9.99201 23.1455 10.6891 24.7977 10.8418 25.2728C11.0329 25.8573 11.2336 26.255 11.4536 26.5272C11.5678 26.666 11.6984 26.7888 11.8524 26.8822C11.9326 26.931 12.0184 26.9704 12.1081 26.9997C12.5481 27.1598 12.9496 27.0931 13.2013 27.0117C13.3489 26.9628 13.4894 26.8955 13.6193 26.8115L13.6261 26.8088L17.5119 24.4573L22.0013 27.7964C22.0673 27.8458 22.1388 27.8872 22.2158 27.9205C22.7548 28.1474 23.2773 28.2275 23.7695 28.1634C24.259 28.0967 24.6481 27.8978 24.9383 27.6723C25.2714 27.4117 25.537 27.0789 25.7138 26.7007L25.7261 26.6714L25.7303 26.6607L25.733 26.6554V26.6527L25.7344 26.6514C25.7583 26.594 25.7767 26.5345 25.7894 26.4739L29.8869 6.42212C29.8998 6.35793 29.9063 6.29267 29.9061 6.22727C29.9061 5.64007 29.6779 5.08089 29.143 4.74324C28.6838 4.45364 28.1736 4.4403 27.8505 4.46432C27.504 4.49101 27.1823 4.57375 26.9664 4.64048C26.8455 4.67765 26.7263 4.7195 26.6089 4.76593L26.5938 4.7726L3.61201 13.522L3.60926 13.5233C3.5315 13.5511 3.4549 13.5818 3.37964 13.6154C3.1974 13.6949 3.02258 13.7896 2.85714 13.8983C2.54501 14.1052 1.82589 14.6737 1.94826 15.6132C2.04451 16.3606 2.57251 16.821 2.89564 17.0425C3.07164 17.164 3.23939 17.2507 3.36314 17.3081C3.41814 17.3348 3.53639 17.3802 3.58726 17.4015L3.60101 17.4055L7.95839 18.8282ZM27.3981 6.61429H27.3954C27.3836 6.61939 27.3716 6.62429 27.3596 6.62897L4.35039 15.3904C4.33855 15.395 4.32663 15.3994 4.31464 15.4037L4.30089 15.4077C4.25885 15.4237 4.21757 15.4415 4.17714 15.4611C4.21541 15.4824 4.25489 15.5015 4.29539 15.5185L8.61564 16.9304C8.69284 16.9557 8.76669 16.9897 8.83564 17.0319L23.104 8.92441L23.1178 8.91774C23.1732 8.88505 23.2301 8.85477 23.2883 8.82699C23.3873 8.77761 23.5454 8.70555 23.7241 8.65216C23.8479 8.6148 24.215 8.50937 24.611 8.63348C24.8211 8.69774 25.0082 8.81803 25.1512 8.98063C25.2942 9.14322 25.3871 9.34156 25.4195 9.55299C25.4707 9.73816 25.4721 9.93299 25.4236 10.1188C25.3274 10.4858 25.0634 10.7714 24.8228 10.9903C24.6165 11.1771 21.9408 13.6808 19.3021 16.1524L15.7093 19.5155L15.0699 20.116L23.1439 26.1242C23.2529 26.1686 23.3712 26.1869 23.489 26.1776C23.5483 26.1698 23.6042 26.1457 23.6499 26.1082C23.7056 26.0625 23.7535 26.0084 23.7915 25.948L23.7943 25.9467L27.768 6.49819C27.6428 6.52741 27.5201 6.56578 27.4009 6.61296L27.3981 6.61429ZM15.7643 23.1548L14.1528 21.9564L13.7623 24.3653L15.7643 23.1548ZM12.6746 19.5782L14.2765 18.0768L17.8694 14.7111L19.2073 13.4592L10.2423 18.5533L10.2904 18.6627C10.8558 19.9591 11.415 21.2581 11.9679 22.5596L12.357 20.1574C12.3922 19.9346 12.5042 19.7313 12.6746 19.5782Z"
    fill="#F5F5DC"
  />
</svg>
