<svg
  width="28"
  height="29"
  viewBox="0 0 28 29"
  fill="none"
  xmlns="http://www.w3.org/2000/svg"
>
  <path
    d="M9.29255 7.46899C9.07572 7.43642 8.85462 7.48147 8.66605 7.59665H8.64971C8.21221 7.8616 7.81788 8.19519 7.48188 8.58779C7.20188 8.92138 7.05021 9.25858 7.01055 9.58375C6.98721 9.77643 7.00355 9.97153 7.05838 10.1558L7.07938 10.1678C7.39438 11.1228 7.80505 12.0417 8.30671 12.9064C8.95357 14.1209 9.74959 15.2442 10.675 16.2483L10.703 16.2893L10.7474 16.323L10.7742 16.3555L10.8069 16.3844C11.7831 17.3426 12.8738 18.1682 14.0525 18.8412C15.4 19.5987 16.2179 19.9564 16.709 20.1057V20.113C16.8525 20.1587 16.9832 20.1792 17.115 20.1792C17.5333 20.1473 17.9293 19.9718 18.2397 19.6806C18.6189 19.3338 18.9397 18.9255 19.1894 18.4715V18.4631C19.4239 18.0054 19.3445 17.5743 19.0062 17.2816C18.3266 16.6687 17.5918 16.1243 16.8117 15.6558C16.289 15.3632 15.7582 15.5402 15.5435 15.8365L15.085 16.4338C14.8494 16.7301 14.4224 16.6891 14.4224 16.6891L14.4107 16.6963C11.2245 15.857 10.374 12.5271 10.374 12.5271C10.374 12.5271 10.3344 12.0742 10.6295 11.843L11.2035 11.3661C11.4789 11.1349 11.6702 10.5881 11.375 10.0486C10.9243 9.24264 10.3979 8.48431 9.80355 7.78452C9.67391 7.61983 9.49212 7.50766 9.29021 7.46779L9.29255 7.46899ZM14.6767 6.02142C14.522 6.02142 14.3736 6.08486 14.2642 6.19779C14.1548 6.31071 14.0934 6.46387 14.0934 6.62357C14.0934 6.78327 14.1548 6.93643 14.2642 7.04936C14.3736 7.16228 14.522 7.22572 14.6767 7.22572C16.1514 7.22572 17.3764 7.7231 18.3459 8.67691C18.844 9.19837 19.2325 9.81618 19.4869 10.493C19.7424 11.171 19.859 11.8948 19.8287 12.6198C19.8222 12.7795 19.8774 12.9353 19.9822 13.053C20.087 13.1706 20.2328 13.2405 20.3875 13.2472C20.5423 13.2539 20.6932 13.1969 20.8072 13.0887C20.9212 12.9806 20.9889 12.8301 20.9954 12.6704C21.0316 11.7786 20.8882 10.8887 20.5742 10.057C20.2589 9.22141 19.7808 8.46148 19.1695 7.82426L19.1579 7.81222C17.955 6.62598 16.4337 6.02142 14.6767 6.02142Z"
    fill="#F5F5DC"
  />
  <path
    d="M14.6358 8.00133C14.4811 8.00133 14.3327 8.06477 14.2233 8.17769C14.1139 8.29062 14.0525 8.44378 14.0525 8.60348C14.0525 8.76318 14.1139 8.91634 14.2233 9.02926C14.3327 9.14219 14.4811 9.20563 14.6358 9.20563H14.6556C15.7196 9.28391 16.4943 9.65001 17.0368 10.251C17.5933 10.87 17.8815 11.6395 17.8593 12.5909C17.8558 12.7506 17.9138 12.9052 18.0207 13.0208C18.1276 13.1363 18.2745 13.2032 18.4292 13.2069C18.5839 13.2106 18.7337 13.1507 18.8456 13.0403C18.9576 12.93 19.0224 12.7783 19.026 12.6186C19.054 11.3698 18.6643 10.2919 17.892 9.43204V9.42963C17.1021 8.5553 16.0183 8.09285 14.714 8.00253L14.6941 8.00012L14.6358 8.00133Z"
    fill="#F5F5DC"
  />
  <path
    d="M14.6137 10.0186C14.5356 10.0115 14.4569 10.0207 14.3824 10.0457C14.3078 10.0706 14.2389 10.1109 14.1798 10.1639C14.1206 10.217 14.0724 10.2818 14.0381 10.3545C14.0037 10.4272 13.9839 10.5063 13.9798 10.5871C13.9758 10.6679 13.9875 10.7487 14.0143 10.8247C14.0412 10.9007 14.0826 10.9704 14.1361 11.0295C14.1896 11.0886 14.2541 11.136 14.3257 11.1688C14.3973 11.2016 14.4746 11.2192 14.553 11.2205C15.0407 11.247 15.3522 11.3988 15.5482 11.6023C15.7453 11.807 15.8923 12.1358 15.9192 12.65C15.9206 12.7308 15.9378 12.8105 15.9697 12.8843C16.0017 12.9581 16.0476 13.0245 16.1049 13.0796C16.1623 13.1347 16.2297 13.1772 16.3033 13.2048C16.3769 13.2324 16.4551 13.2444 16.5333 13.2401C16.6115 13.2358 16.6881 13.2154 16.7584 13.1799C16.8288 13.1444 16.8915 13.0947 16.9428 13.0337C16.9942 12.9726 17.0331 12.9016 17.0572 12.8247C17.0814 12.7478 17.0903 12.6667 17.0835 12.5862C17.0462 11.8636 16.8268 11.2253 16.3777 10.7557C15.9262 10.286 15.3113 10.0572 14.6137 10.0186Z"
    fill="#F5F5DC"
  />
  <path
    fill-rule="evenodd"
    clip-rule="evenodd"
    d="M8.24483 2.87104C11.9572 2.01442 15.8071 2.01442 19.5195 2.87104L19.915 2.96136C21.0002 3.2118 21.9969 3.76791 22.7944 4.56792C23.5919 5.36794 24.1588 6.38051 24.4323 7.49315C25.3747 11.3263 25.3747 15.3417 24.4323 19.1749C24.1588 20.2875 23.5919 21.3001 22.7944 22.1001C21.9969 22.9001 21.0002 23.4562 19.915 23.7066L19.5183 23.797C17.1932 24.3337 14.8073 24.5359 12.4285 24.3979L9.33333 27.2569C9.21664 27.3648 9.07405 27.4383 8.92043 27.4699C8.76682 27.5014 8.60782 27.4898 8.46002 27.4363C8.31222 27.3828 8.18105 27.2893 8.0802 27.1656C7.97935 27.0419 7.91251 26.8925 7.88667 26.7331L7.3745 23.5754C6.39238 23.2599 5.50504 22.6898 4.7973 21.9193C4.08955 21.1489 3.58505 20.204 3.332 19.1749C2.38963 15.3417 2.38963 11.3263 3.332 7.49315C3.60549 6.38051 4.17246 5.36794 4.96992 4.56792C5.76738 3.76791 6.7641 3.2118 7.84933 2.96136L8.24483 2.87104ZM19.138 4.63293C15.6768 3.83425 12.0875 3.83425 8.62633 4.63293L8.22967 4.72446C7.46051 4.90228 6.75414 5.29669 6.18902 5.86388C5.6239 6.43108 5.22213 7.14887 5.02833 7.93753C4.15767 11.4791 4.15767 15.189 5.02833 18.7305C5.22222 19.5193 5.62416 20.2372 6.18951 20.8044C6.75485 21.3716 7.46146 21.7659 8.23083 21.9436L8.33583 21.9676C8.50569 22.0069 8.66036 22.0975 8.78007 22.2279C8.89977 22.3583 8.97907 22.5227 9.00783 22.6999L9.35083 24.817L11.5348 22.7998C11.622 22.719 11.7241 22.6571 11.8349 22.6178C11.9458 22.5785 12.0631 22.5626 12.18 22.571C14.5122 22.7418 16.8561 22.5613 19.138 22.0351L19.5335 21.9436C20.3029 21.7659 21.0095 21.3716 21.5748 20.8044C22.1402 20.2372 22.5421 19.5193 22.736 18.7305C23.6063 15.1898 23.6063 11.4794 22.736 7.93753C22.5421 7.14871 22.1402 6.43082 21.5748 5.86361C21.0095 5.2964 20.3029 4.90208 19.5335 4.72446L19.138 4.63293Z"
    fill="#F5F5DC"
  />
</svg>
