<svg
  width="35"
  height="35"
  viewBox="0 0 35 35"
  fill="none"
  xmlns="http://www.w3.org/2000/svg"
>
  <path
    d="M24.3359 5.19531C25.739 5.19531 27.0884 5.73458 28.105 6.70158C29.1216 7.66857 29.7277 8.98931 29.7979 10.3906L29.8047 10.6641V24.3359C29.8047 25.739 29.2654 27.0884 28.2984 28.105C27.3314 29.1216 26.0107 29.7277 24.6094 29.7979L24.3359 29.8047H10.6641C9.261 29.8047 7.9116 29.2654 6.89498 28.2984C5.87837 27.3314 5.2723 26.0107 5.20215 24.6094L5.19531 24.3359V10.6641C5.19531 9.261 5.73458 7.9116 6.70158 6.89498C7.66857 5.87837 8.98931 5.2723 10.3906 5.20215L10.6641 5.19531H24.3359ZM24.3359 7.92969H10.6641C9.97421 7.92947 9.30977 8.19001 8.80394 8.65908C8.2981 9.12815 7.98826 9.77108 7.93652 10.459L7.92969 10.6641V24.3359C7.92947 25.0258 8.19001 25.6902 8.65908 26.1961C9.12815 26.7019 9.77108 27.0117 10.459 27.0635L10.6641 27.0703H24.3359C25.0258 27.0705 25.6902 26.81 26.1961 26.3409C26.7019 25.8719 27.0117 25.2289 27.0635 24.541L27.0703 24.3359V10.6641C27.0705 9.97421 26.81 9.30977 26.3409 8.80394C25.8719 8.2981 25.2289 7.98826 24.541 7.93652L24.3359 7.92969ZM22.2209 13.7061L22.5148 13.3232C22.7161 13.0216 23.0289 12.8122 23.3846 12.7412C23.7402 12.6701 24.1094 12.7433 24.4111 12.9445C24.7128 13.1458 24.9222 13.4586 24.9932 13.8142C25.0642 14.1699 24.9911 14.5391 24.7898 14.8408C24.2113 15.6802 23.5388 16.4508 22.7855 17.1377C22.5905 17.3179 22.3898 17.4921 22.184 17.66C23.6852 18.4584 24.9047 19.6834 25.5582 20.9904C25.6451 21.1516 25.6988 21.3286 25.716 21.5108C25.7332 21.6931 25.7136 21.877 25.6584 22.0516C25.6032 22.2262 25.5135 22.3879 25.3946 22.5271C25.2757 22.6664 25.13 22.7803 24.9663 22.8622C24.8025 22.9441 24.6239 22.9922 24.4412 23.0038C24.2585 23.0154 24.0753 22.9901 23.9025 22.9295C23.7297 22.869 23.5709 22.7743 23.4353 22.6512C23.2998 22.528 23.1905 22.3789 23.1137 22.2127C22.4889 20.9658 20.8715 19.7463 19.1543 19.4961L18.8672 19.4646V21.6016C18.8672 21.9642 18.7231 22.3119 18.4667 22.5683C18.2104 22.8247 17.8626 22.9688 17.5 22.9688C12.7285 22.9688 9.29688 19.0477 9.29688 14.082C9.29688 13.7194 9.44092 13.3717 9.69731 13.1153C9.95371 12.8589 10.3015 12.7148 10.6641 12.7148C11.0267 12.7148 11.3744 12.8589 11.6308 13.1153C11.8872 13.3717 12.0312 13.7194 12.0312 14.082C12.0312 16.6441 13.3684 19.1393 15.8525 19.9746L16.1328 20.0607V14.082C16.1328 13.3041 16.759 12.7572 17.5 12.7148C17.8081 12.7146 18.1073 12.8184 18.349 13.0095C18.5907 13.2006 18.7608 13.4677 18.8316 13.7676L18.859 13.9221L18.8686 16.5197C19.5467 16.2381 20.2426 15.7637 20.9303 15.1279C21.4061 14.6904 21.8244 14.2092 22.2209 13.7061Z"
    fill="#F5F5DC"
  />
</svg>
